# xmcd
#
# Track frame offsets:
#	150
#	10152
#	21625
#	32767
#	44560
#	55450
#	66792
#	78107
#	87732
#	98050
#	108725
#	120032
#	131410
#	143605
#	156355
#	168495
#	180037
#	188512
#	196565
#	209885
#
# Disc length: 2926
#
# Revision: 1
# Processed by: cddbd v1.5.1PL0 Copyright (c) Steve Scherf et al.
# Submitted via: dBpowerAMP V4.0
# Normalized: r0:TDELIM( - )
#
DISCID=0b0b6c14
DTITLE=Various Artist - For Millionaires Only 3
DYEAR=1900
DGENRE=
TTITLE0=Ray Agee - I'm Losing Again
TTITLE1=Masquaders - That's The Same Thing
TTITLE2=Fortson and Scott - Sweet Lover
TTITLE3=Debonairs - Please Come Back Baby
TTITLE4=Capitals - I Can't Deny That I Love You
TTITLE5=Carpets - I Just Can't Win
TTITLE6=Elsie Strong - You Cut The Love Line
TTITLE7=Dennis Edwards - I Didn't Have To (But I Did)
TTITLE8=Oracles - I Ain't Got The Time
TTITLE9=Changing Scene - When The City Sleeps
TTITLE10=George Pepp - The Feeling Is Real
TTITLE11=Hyperions - Why You Wanna Treat Me The Way You Do
TTITLE12=Anthony and The Delsonics - Everytime
TTITLE13=Calara Hardy - I Dream Of You
TTITLE14=Littl Tommy - Baby Can't You See
TTITLE15=Jsse Davis - Gonna Hang On In There Girl
TTITLE16=Combinations - What'cha Gonna Do
TTITLE17=Joe Hicks - Iv'e Got To Be Free
TTITLE18=Stunners - Nobody But Be
TTITLE19=Clarence Williams - No Rest For The Worried
EXTD=tim1701
EXTT0=
EXTT1=
EXTT2=
EXTT3=
EXTT4=
EXTT5=
EXTT6=
EXTT7=
EXTT8=
EXTT9=
EXTT10=
EXTT11=
EXTT12=
EXTT13=
EXTT14=
EXTT15=
EXTT16=
EXTT17=
EXTT18=
EXTT19=
PLAYORDER=
